<mxfile host="app.diagrams.net" modified="2024-06-23T10:17:55.912Z" agent="Mozilla/5.0 (Windows NT 10.0; Win64; x64) AppleWebKit/537.36 (KHTML, like Gecko) Chrome/99.0.4844.84 Safari/537.36 HBPC/12.1.3.303" etag="8pS9SKioqJZ9Ckl5FNcD" version="24.6.2" type="device">
  <diagram name="第 1 页" id="aT6w0RABXi3wKxt_HK1t">
    <mxGraphModel dx="1841" dy="684" grid="1" gridSize="10" guides="1" tooltips="1" connect="1" arrows="1" fold="1" page="1" pageScale="1" pageWidth="827" pageHeight="1169" math="0" shadow="0">
      <root>
        <mxCell id="0" />
        <mxCell id="1" parent="0" />
        <mxCell id="k5-OoNL-yclrRTYLlUPa-1" value="User" style="swimlane;fontStyle=2;align=center;verticalAlign=top;childLayout=stackLayout;horizontal=1;startSize=26;horizontalStack=0;resizeParent=1;resizeLast=0;collapsible=1;marginBottom=0;rounded=0;shadow=0;strokeWidth=1;" vertex="1" parent="1">
          <mxGeometry x="-600" y="50" width="160" height="200" as="geometry">
            <mxRectangle x="230" y="140" width="160" height="26" as="alternateBounds" />
          </mxGeometry>
        </mxCell>
        <mxCell id="k5-OoNL-yclrRTYLlUPa-2" value="+Id String" style="text;align=left;verticalAlign=top;spacingLeft=4;spacingRight=4;overflow=hidden;rotatable=0;points=[[0,0.5],[1,0.5]];portConstraint=eastwest;" vertex="1" parent="k5-OoNL-yclrRTYLlUPa-1">
          <mxGeometry y="26" width="160" height="26" as="geometry" />
        </mxCell>
        <mxCell id="k5-OoNL-yclrRTYLlUPa-3" value="+fakename String" style="text;align=left;verticalAlign=top;spacingLeft=4;spacingRight=4;overflow=hidden;rotatable=0;points=[[0,0.5],[1,0.5]];portConstraint=eastwest;rounded=0;shadow=0;html=0;" vertex="1" parent="k5-OoNL-yclrRTYLlUPa-1">
          <mxGeometry y="52" width="160" height="26" as="geometry" />
        </mxCell>
        <mxCell id="k5-OoNL-yclrRTYLlUPa-4" value="+userpic String" style="text;align=left;verticalAlign=top;spacingLeft=4;spacingRight=4;overflow=hidden;rotatable=0;points=[[0,0.5],[1,0.5]];portConstraint=eastwest;rounded=0;shadow=0;html=0;" vertex="1" parent="k5-OoNL-yclrRTYLlUPa-1">
          <mxGeometry y="78" width="160" height="26" as="geometry" />
        </mxCell>
        <mxCell id="k5-OoNL-yclrRTYLlUPa-5" value="" style="line;html=1;strokeWidth=1;align=left;verticalAlign=middle;spacingTop=-1;spacingLeft=3;spacingRight=3;rotatable=0;labelPosition=right;points=[];portConstraint=eastwest;" vertex="1" parent="k5-OoNL-yclrRTYLlUPa-1">
          <mxGeometry y="104" width="160" height="8" as="geometry" />
        </mxCell>
        <mxCell id="k5-OoNL-yclrRTYLlUPa-6" value="+setid()" style="text;align=left;verticalAlign=top;spacingLeft=4;spacingRight=4;overflow=hidden;rotatable=0;points=[[0,0.5],[1,0.5]];portConstraint=eastwest;" vertex="1" parent="k5-OoNL-yclrRTYLlUPa-1">
          <mxGeometry y="112" width="160" height="26" as="geometry" />
        </mxCell>
        <mxCell id="k5-OoNL-yclrRTYLlUPa-7" value="+getid()" style="text;align=left;verticalAlign=top;spacingLeft=4;spacingRight=4;overflow=hidden;rotatable=0;points=[[0,0.5],[1,0.5]];portConstraint=eastwest;" vertex="1" parent="k5-OoNL-yclrRTYLlUPa-1">
          <mxGeometry y="138" width="160" height="26" as="geometry" />
        </mxCell>
        <mxCell id="k5-OoNL-yclrRTYLlUPa-8" value="……" style="text;align=left;verticalAlign=top;spacingLeft=4;spacingRight=4;overflow=hidden;rotatable=0;points=[[0,0.5],[1,0.5]];portConstraint=eastwest;" vertex="1" parent="k5-OoNL-yclrRTYLlUPa-1">
          <mxGeometry y="164" width="160" height="26" as="geometry" />
        </mxCell>
        <mxCell id="k5-OoNL-yclrRTYLlUPa-9" value="Talk" style="swimlane;fontStyle=0;align=center;verticalAlign=top;childLayout=stackLayout;horizontal=1;startSize=26;horizontalStack=0;resizeParent=1;resizeLast=0;collapsible=1;marginBottom=0;rounded=0;shadow=0;strokeWidth=1;" vertex="1" parent="1">
          <mxGeometry x="-340" y="370" width="160" height="190" as="geometry">
            <mxRectangle x="550" y="140" width="160" height="26" as="alternateBounds" />
          </mxGeometry>
        </mxCell>
        <mxCell id="k5-OoNL-yclrRTYLlUPa-10" value="time String" style="text;align=left;verticalAlign=top;spacingLeft=4;spacingRight=4;overflow=hidden;rotatable=0;points=[[0,0.5],[1,0.5]];portConstraint=eastwest;" vertex="1" parent="k5-OoNL-yclrRTYLlUPa-9">
          <mxGeometry y="26" width="160" height="26" as="geometry" />
        </mxCell>
        <mxCell id="k5-OoNL-yclrRTYLlUPa-11" value="chatroomname String" style="text;align=left;verticalAlign=top;spacingLeft=4;spacingRight=4;overflow=hidden;rotatable=0;points=[[0,0.5],[1,0.5]];portConstraint=eastwest;rounded=0;shadow=0;html=0;" vertex="1" parent="k5-OoNL-yclrRTYLlUPa-9">
          <mxGeometry y="52" width="160" height="26" as="geometry" />
        </mxCell>
        <mxCell id="k5-OoNL-yclrRTYLlUPa-12" value="context String" style="text;align=left;verticalAlign=top;spacingLeft=4;spacingRight=4;overflow=hidden;rotatable=0;points=[[0,0.5],[1,0.5]];portConstraint=eastwest;rounded=0;shadow=0;html=0;" vertex="1" parent="k5-OoNL-yclrRTYLlUPa-9">
          <mxGeometry y="78" width="160" height="26" as="geometry" />
        </mxCell>
        <mxCell id="k5-OoNL-yclrRTYLlUPa-13" value="" style="line;html=1;strokeWidth=1;align=left;verticalAlign=middle;spacingTop=-1;spacingLeft=3;spacingRight=3;rotatable=0;labelPosition=right;points=[];portConstraint=eastwest;" vertex="1" parent="k5-OoNL-yclrRTYLlUPa-9">
          <mxGeometry y="104" width="160" height="8" as="geometry" />
        </mxCell>
        <mxCell id="k5-OoNL-yclrRTYLlUPa-14" value="+settime()" style="text;align=left;verticalAlign=top;spacingLeft=4;spacingRight=4;overflow=hidden;rotatable=0;points=[[0,0.5],[1,0.5]];portConstraint=eastwest;" vertex="1" parent="k5-OoNL-yclrRTYLlUPa-9">
          <mxGeometry y="112" width="160" height="26" as="geometry" />
        </mxCell>
        <mxCell id="k5-OoNL-yclrRTYLlUPa-15" value="+gettime()" style="text;align=left;verticalAlign=top;spacingLeft=4;spacingRight=4;overflow=hidden;rotatable=0;points=[[0,0.5],[1,0.5]];portConstraint=eastwest;" vertex="1" parent="k5-OoNL-yclrRTYLlUPa-9">
          <mxGeometry y="138" width="160" height="26" as="geometry" />
        </mxCell>
        <mxCell id="k5-OoNL-yclrRTYLlUPa-16" value="……" style="text;align=left;verticalAlign=top;spacingLeft=4;spacingRight=4;overflow=hidden;rotatable=0;points=[[0,0.5],[1,0.5]];portConstraint=eastwest;" vertex="1" parent="k5-OoNL-yclrRTYLlUPa-9">
          <mxGeometry y="164" width="160" height="26" as="geometry" />
        </mxCell>
        <mxCell id="k5-OoNL-yclrRTYLlUPa-17" value="Room" style="swimlane;fontStyle=0;align=center;verticalAlign=top;childLayout=stackLayout;horizontal=1;startSize=26;horizontalStack=0;resizeParent=1;resizeLast=0;collapsible=1;marginBottom=0;rounded=0;shadow=0;strokeWidth=1;" vertex="1" parent="1">
          <mxGeometry x="-600" y="370" width="160" height="190" as="geometry">
            <mxRectangle x="550" y="140" width="160" height="26" as="alternateBounds" />
          </mxGeometry>
        </mxCell>
        <mxCell id="k5-OoNL-yclrRTYLlUPa-18" value="roomName String" style="text;align=left;verticalAlign=top;spacingLeft=4;spacingRight=4;overflow=hidden;rotatable=0;points=[[0,0.5],[1,0.5]];portConstraint=eastwest;" vertex="1" parent="k5-OoNL-yclrRTYLlUPa-17">
          <mxGeometry y="26" width="160" height="26" as="geometry" />
        </mxCell>
        <mxCell id="k5-OoNL-yclrRTYLlUPa-19" value="chatroomname String" style="text;align=left;verticalAlign=top;spacingLeft=4;spacingRight=4;overflow=hidden;rotatable=0;points=[[0,0.5],[1,0.5]];portConstraint=eastwest;rounded=0;shadow=0;html=0;" vertex="1" parent="k5-OoNL-yclrRTYLlUPa-17">
          <mxGeometry y="52" width="160" height="26" as="geometry" />
        </mxCell>
        <mxCell id="k5-OoNL-yclrRTYLlUPa-20" value="context String" style="text;align=left;verticalAlign=top;spacingLeft=4;spacingRight=4;overflow=hidden;rotatable=0;points=[[0,0.5],[1,0.5]];portConstraint=eastwest;rounded=0;shadow=0;html=0;" vertex="1" parent="k5-OoNL-yclrRTYLlUPa-17">
          <mxGeometry y="78" width="160" height="26" as="geometry" />
        </mxCell>
        <mxCell id="k5-OoNL-yclrRTYLlUPa-21" value="" style="line;html=1;strokeWidth=1;align=left;verticalAlign=middle;spacingTop=-1;spacingLeft=3;spacingRight=3;rotatable=0;labelPosition=right;points=[];portConstraint=eastwest;" vertex="1" parent="k5-OoNL-yclrRTYLlUPa-17">
          <mxGeometry y="104" width="160" height="8" as="geometry" />
        </mxCell>
        <mxCell id="k5-OoNL-yclrRTYLlUPa-22" value="+setroomname()" style="text;align=left;verticalAlign=top;spacingLeft=4;spacingRight=4;overflow=hidden;rotatable=0;points=[[0,0.5],[1,0.5]];portConstraint=eastwest;" vertex="1" parent="k5-OoNL-yclrRTYLlUPa-17">
          <mxGeometry y="112" width="160" height="26" as="geometry" />
        </mxCell>
        <mxCell id="k5-OoNL-yclrRTYLlUPa-23" value="+getroomname()" style="text;align=left;verticalAlign=top;spacingLeft=4;spacingRight=4;overflow=hidden;rotatable=0;points=[[0,0.5],[1,0.5]];portConstraint=eastwest;" vertex="1" parent="k5-OoNL-yclrRTYLlUPa-17">
          <mxGeometry y="138" width="160" height="26" as="geometry" />
        </mxCell>
        <mxCell id="k5-OoNL-yclrRTYLlUPa-24" value="……" style="text;align=left;verticalAlign=top;spacingLeft=4;spacingRight=4;overflow=hidden;rotatable=0;points=[[0,0.5],[1,0.5]];portConstraint=eastwest;" vertex="1" parent="k5-OoNL-yclrRTYLlUPa-17">
          <mxGeometry y="164" width="160" height="26" as="geometry" />
        </mxCell>
        <mxCell id="k5-OoNL-yclrRTYLlUPa-25" value="" style="endArrow=open;endFill=1;endSize=12;html=1;rounded=0;" edge="1" parent="1" source="k5-OoNL-yclrRTYLlUPa-17" target="k5-OoNL-yclrRTYLlUPa-1">
          <mxGeometry width="160" relative="1" as="geometry">
            <mxPoint x="-240" y="170" as="sourcePoint" />
            <mxPoint x="-80" y="170" as="targetPoint" />
          </mxGeometry>
        </mxCell>
        <mxCell id="k5-OoNL-yclrRTYLlUPa-26" value="GAME" style="swimlane;fontStyle=0;align=center;verticalAlign=top;childLayout=stackLayout;horizontal=1;startSize=26;horizontalStack=0;resizeParent=1;resizeLast=0;collapsible=1;marginBottom=0;rounded=0;shadow=0;strokeWidth=1;" vertex="1" parent="1">
          <mxGeometry x="-340" y="55" width="160" height="190" as="geometry">
            <mxRectangle x="550" y="140" width="160" height="26" as="alternateBounds" />
          </mxGeometry>
        </mxCell>
        <mxCell id="k5-OoNL-yclrRTYLlUPa-27" value="id String" style="text;align=left;verticalAlign=top;spacingLeft=4;spacingRight=4;overflow=hidden;rotatable=0;points=[[0,0.5],[1,0.5]];portConstraint=eastwest;" vertex="1" parent="k5-OoNL-yclrRTYLlUPa-26">
          <mxGeometry y="26" width="160" height="26" as="geometry" />
        </mxCell>
        <mxCell id="k5-OoNL-yclrRTYLlUPa-28" value="chatroom String" style="text;align=left;verticalAlign=top;spacingLeft=4;spacingRight=4;overflow=hidden;rotatable=0;points=[[0,0.5],[1,0.5]];portConstraint=eastwest;rounded=0;shadow=0;html=0;" vertex="1" parent="k5-OoNL-yclrRTYLlUPa-26">
          <mxGeometry y="52" width="160" height="26" as="geometry" />
        </mxCell>
        <mxCell id="k5-OoNL-yclrRTYLlUPa-29" value="gameid int" style="text;align=left;verticalAlign=top;spacingLeft=4;spacingRight=4;overflow=hidden;rotatable=0;points=[[0,0.5],[1,0.5]];portConstraint=eastwest;rounded=0;shadow=0;html=0;" vertex="1" parent="k5-OoNL-yclrRTYLlUPa-26">
          <mxGeometry y="78" width="160" height="26" as="geometry" />
        </mxCell>
        <mxCell id="k5-OoNL-yclrRTYLlUPa-30" value="" style="line;html=1;strokeWidth=1;align=left;verticalAlign=middle;spacingTop=-1;spacingLeft=3;spacingRight=3;rotatable=0;labelPosition=right;points=[];portConstraint=eastwest;" vertex="1" parent="k5-OoNL-yclrRTYLlUPa-26">
          <mxGeometry y="104" width="160" height="8" as="geometry" />
        </mxCell>
        <mxCell id="k5-OoNL-yclrRTYLlUPa-31" value="+setid()" style="text;align=left;verticalAlign=top;spacingLeft=4;spacingRight=4;overflow=hidden;rotatable=0;points=[[0,0.5],[1,0.5]];portConstraint=eastwest;" vertex="1" parent="k5-OoNL-yclrRTYLlUPa-26">
          <mxGeometry y="112" width="160" height="26" as="geometry" />
        </mxCell>
        <mxCell id="k5-OoNL-yclrRTYLlUPa-32" value="+getid()" style="text;align=left;verticalAlign=top;spacingLeft=4;spacingRight=4;overflow=hidden;rotatable=0;points=[[0,0.5],[1,0.5]];portConstraint=eastwest;" vertex="1" parent="k5-OoNL-yclrRTYLlUPa-26">
          <mxGeometry y="138" width="160" height="26" as="geometry" />
        </mxCell>
        <mxCell id="k5-OoNL-yclrRTYLlUPa-33" value="……" style="text;align=left;verticalAlign=top;spacingLeft=4;spacingRight=4;overflow=hidden;rotatable=0;points=[[0,0.5],[1,0.5]];portConstraint=eastwest;" vertex="1" parent="k5-OoNL-yclrRTYLlUPa-26">
          <mxGeometry y="164" width="160" height="26" as="geometry" />
        </mxCell>
        <mxCell id="k5-OoNL-yclrRTYLlUPa-34" value="" style="endArrow=diamondThin;endFill=0;endSize=24;html=1;rounded=0;" edge="1" parent="1">
          <mxGeometry width="160" relative="1" as="geometry">
            <mxPoint x="-470" y="250" as="sourcePoint" />
            <mxPoint x="-470" y="370" as="targetPoint" />
            <Array as="points">
              <mxPoint x="-470" y="280" />
              <mxPoint x="-470" y="330" />
            </Array>
          </mxGeometry>
        </mxCell>
        <mxCell id="k5-OoNL-yclrRTYLlUPa-35" value="" style="endArrow=diamondThin;endFill=1;endSize=24;html=1;rounded=0;" edge="1" parent="1" source="k5-OoNL-yclrRTYLlUPa-9" target="k5-OoNL-yclrRTYLlUPa-17">
          <mxGeometry width="160" relative="1" as="geometry">
            <mxPoint x="-260" y="90" as="sourcePoint" />
            <mxPoint x="-100" y="90" as="targetPoint" />
          </mxGeometry>
        </mxCell>
        <mxCell id="k5-OoNL-yclrRTYLlUPa-36" value="" style="endArrow=diamondThin;endFill=0;endSize=24;html=1;rounded=0;" edge="1" parent="1" source="k5-OoNL-yclrRTYLlUPa-1" target="k5-OoNL-yclrRTYLlUPa-26">
          <mxGeometry width="160" relative="1" as="geometry">
            <mxPoint x="-260" y="90" as="sourcePoint" />
            <mxPoint x="-100" y="90" as="targetPoint" />
          </mxGeometry>
        </mxCell>
        <mxCell id="k5-OoNL-yclrRTYLlUPa-37" value="" style="endArrow=diamondThin;endFill=1;endSize=24;html=1;rounded=0;entryX=1;entryY=0.5;entryDx=0;entryDy=0;" edge="1" parent="1" source="k5-OoNL-yclrRTYLlUPa-9" target="k5-OoNL-yclrRTYLlUPa-8">
          <mxGeometry width="160" relative="1" as="geometry">
            <mxPoint x="-260" y="90" as="sourcePoint" />
            <mxPoint x="-100" y="90" as="targetPoint" />
            <Array as="points">
              <mxPoint x="-360" y="465" />
              <mxPoint x="-360" y="320" />
              <mxPoint x="-360" y="227" />
            </Array>
          </mxGeometry>
        </mxCell>
        <mxCell id="k5-OoNL-yclrRTYLlUPa-38" value="model" style="html=1;whiteSpace=wrap;" vertex="1" parent="1">
          <mxGeometry x="-770" y="230" width="110" height="50" as="geometry" />
        </mxCell>
      </root>
    </mxGraphModel>
  </diagram>
</mxfile>
